<svg width="480" height="480" viewBox="0 0 480 480" fill="none" xmlns="http://www.w3.org/2000/svg">
<path d="M365.746 233.67C363.728 206.836 354.726 180.999 339.634 158.72C307.646 111.35 249.128 89.4954 193.921 104.301C138.972 116.814 97.2458 161.624 88.6722 217.324C87.1744 227.836 87.1744 238.508 88.6722 249.018C90.209 259.95 94.2314 270.384 100.433 279.518C111.397 295.064 128.339 299.45 136.911 311.608C140.233 316.298 141.721 322.042 141.099 327.756C140.87 330.73 143.105 333.322 146.08 333.536H151.662C165.933 337.478 180.452 340.474 195.117 342.504C201.398 343.3 207.722 343.7 214.054 343.7H232.99C247.542 343.7 261.894 340.91 276.644 338.916C280.058 338.808 282.736 335.952 282.624 332.54C282.518 329.044 279.536 326.332 276.048 326.558L232.99 324.166H152.062C152.068 317.542 150.052 311.074 146.28 305.63C138.107 293.868 121.562 288.486 111.197 272.938C106.635 265.28 103.844 256.698 103.025 247.822C101.791 238.484 101.925 229.016 103.423 219.716C112.533 171.244 150.152 133.152 198.507 123.438C245.626 111.255 295.31 130.105 322.492 170.481C335.508 189.615 343.338 211.798 345.216 234.866C347.704 257.244 340.44 279.61 325.282 296.26C322.242 299.28 319.048 302.142 315.714 304.832C306.744 311.808 297.774 317.39 289.004 324.766C285.76 327.984 283.364 331.956 282.026 336.328C280.16 342.874 278.694 349.532 277.64 356.26C277.444 360.848 275.922 365.278 273.256 369.016C260.874 379.64 244.902 385.128 228.604 384.366C203.66 383.596 179.068 378.26 156.048 368.618C157.841 365.428 156.048 355.662 156.048 349.682C155.833 346.238 152.919 343.588 149.47 343.702C146.054 343.914 143.462 346.864 143.688 350.28C143.688 358.254 142.295 368.418 143.688 372.804C144.239 375.556 146.101 377.864 148.672 378.984C174.249 390.79 201.862 397.56 230 398.916C250.278 400.256 270.282 393.682 285.814 380.578C289.008 377.478 291.402 373.648 292.792 369.416C294.882 362.9 296.48 356.238 297.576 349.482C297.48 345.968 298.232 342.48 299.768 339.316C308.538 331.742 317.308 326.758 326.08 319.382C330.216 316.332 334.086 312.93 337.64 309.216C357.538 289.312 367.798 261.74 365.746 233.67Z" fill="black"/>
<path d="M193.926 279.518C195.121 267.954 195.919 256.194 196.915 244.634C200.03 247.848 203.586 250.6 207.48 252.806C213.848 256.832 221.28 258.848 228.81 258.586C235.812 258.39 242.656 256.474 248.742 253.006V269.55C248.66 282.51 249.728 295.45 251.932 308.22C251.932 312.406 261.898 314.996 263.892 308.22C262.68 295.358 262.68 282.412 263.892 269.55C266.668 252.034 270.596 234.722 275.652 217.724C276.958 213.758 275.29 209.424 271.666 207.358C267.926 204.508 262.62 205.03 259.506 208.554C258.708 209.528 258.04 210.6 257.514 211.742L255.322 216.128L250.536 223.902C247.846 227.654 244.378 230.78 240.37 233.07C236.796 235.36 232.654 236.604 228.412 236.66C223.822 236.622 219.386 235.004 215.852 232.074C211.528 228.934 207.98 224.842 205.486 220.116L201.9 211.144C201.9 209.35 200.504 204.964 200.106 203.768C198.224 201.26 195.268 199.783 192.132 199.783C188.893 198.946 185.454 199.938 183.162 202.374C176.783 209.152 181.766 247.424 178.975 291.874C179.464 296.18 179.464 300.528 178.975 304.832C178.975 313.202 188.344 315.596 190.538 306.826C192.658 297.872 193.795 288.716 193.926 279.518Z" fill="#FF4900"/>
<path d="M61.966 123.638C59.4966 120.669 56.7598 117.934 53.7926 115.465L44.6232 108.687C37.2476 103.904 29.4742 100.116 21.7008 95.7302C18.8804 93.7506 14.9967 94.367 12.9294 97.1262C10.9702 99.8832 11.5927 103.704 14.3253 105.697C20.3048 111.877 26.0864 118.057 32.266 124.036C34.8558 126.628 37.4476 129.218 40.0396 131.412C42.6314 133.606 45.4212 135.995 48.2108 138.189C55.117 142.887 61.77 147.944 68.1456 153.338C70.2434 155.416 73.623 155.416 75.719 153.338C78.2292 151.518 78.6862 147.959 76.717 145.565C72.6578 137.714 67.7068 130.357 61.966 123.638Z" fill="#FF4900"/>
<path d="M141.298 34.7344C142.292 38.412 143.559 42.01 145.085 45.4976C146.481 48.8874 147.875 52.2752 149.669 55.665C153.857 63.4384 158.838 70.416 163.224 78.3894C165.289 82.1568 170.659 82.2752 172.889 78.6016C173.618 77.4036 173.867 75.9752 173.589 74.6016C172.298 65.669 170.5 56.818 168.208 48.0896C167.212 44.5018 165.816 40.914 164.42 37.3264C163.261 33.8446 161.863 30.4488 160.234 27.159C155.053 19.1856 150.267 12.0101 145.683 4.23664C144.561 0.852974 140.818 -0.881712 137.51 0.448894C134.396 1.73664 132.888 5.2856 134.122 8.42234C136.514 17.7917 138.508 26.363 141.298 34.7344Z" fill="#FF4900"/>
<path d="M290.2 87.1584C293.178 87.5074 295.868 85.3564 296.18 82.3748C298.998 75.1238 301.46 67.7402 303.554 60.2484C304.55 55.8628 304.948 51.279 305.546 46.8934C305.73 40.1994 306.464 33.5322 307.74 26.9608C310.272 22.5874 307.12 17.1118 302.068 17.1057C299.722 17.1037 297.552 18.3527 296.378 20.3812C292.142 26.5588 288.726 33.2608 286.212 40.3158C285.228 43.3198 284.43 46.3832 283.82 49.4852C283.622 52.6056 283.622 55.7342 283.82 58.8546C283.82 66.428 285.414 73.2054 286.012 79.983C285.13 83.1278 287.026 86.379 290.2 87.1584Z" fill="#FF4900"/>
<path d="M461.63 149.949C452.26 149.949 443.492 148.555 434.322 148.555H422.56C418.774 148.555 414.788 149.949 411 150.947C402.098 153.938 393.492 157.74 385.286 162.308C381.034 162.934 379.056 167.928 381.726 171.295C383.44 173.459 386.478 174.044 388.874 172.673C397.842 171.279 406.216 171.279 414.788 170.681L425.55 169.485L436.514 167.491C445.086 165.697 453.458 163.504 462.428 161.71C465.824 161.297 468.336 158.353 468.208 154.932C467.61 151.836 464.772 149.687 461.63 149.949Z" fill="#FF4900"/>
<path d="M258.308 420.046C251.67 420.46 245.012 420.46 238.374 420.046C231.996 420.046 225.616 419.048 218.44 418.65L198.508 417.654C185.351 417.654 172.394 417.654 158.641 416.258C155.676 415.636 152.755 417.496 152.063 420.444C151.441 423.41 153.3 426.33 156.249 427.022C167.422 431.468 178.961 434.936 190.733 437.388C195.867 438.314 201.066 438.846 206.282 438.984C211.456 439.382 216.654 439.382 221.83 438.984C234.692 437.932 247.434 435.73 259.902 432.404C263.28 431.796 265.57 428.624 265.086 425.228C264.574 421.97 261.588 419.688 258.308 420.046Z" fill="black"/>
<path d="M236.784 460.312C230.108 460.116 223.452 459.518 216.85 458.518C212.47 458.22 208.074 458.22 203.694 458.518C195.72 458.518 188.345 460.51 180.571 461.308C177.594 460.958 174.904 463.11 174.592 466.092C174.449 469.116 176.588 471.772 179.573 472.272C186.292 474.842 193.145 477.038 200.106 478.848C203.072 479.38 206.068 479.712 209.076 479.846C212.128 480.05 215.192 480.05 218.244 479.846C225.79 478.39 233.1 475.908 239.974 472.472C244.652 471.474 246.498 465.784 243.294 462.23C241.808 460.58 239.552 459.848 237.382 460.312H236.784Z" fill="black"/>
</svg>

